<?xml version="1.0" encoding="utf-8"?>
<!-- Generator: Adobe Adobe Illustrator 24.2.0, SVG Export Plug-In . SVG Version: 6.00 Build 0)  -->
<svg version="1.1" id="Calque_4_-_copie_5" xmlns="http://www.w3.org/2000/svg" xmlns:xlink="http://www.w3.org/1999/xlink" x="0px"
	 y="0px" width="4000px" height="4000px" viewBox="0 0 4000 4000" style="enable-background:new 0 0 4000 4000;"
	 xml:space="preserve">
<style type="text/css">
	.st0{display:none;}
	.st1{display:inline;}
</style>
<g>
	<g>
		<path d="M71.21,2001.74c24.15-8.64,47.99-17.57,71.63-26.96c23.65-9.34,47.11-19.04,70.52-28.87
			c46.81-19.73,93.39-40.05,140.52-59.67c23.56-9.83,47.25-19.44,71.14-28.76c11.98-4.59,23.94-9.24,36.03-13.64l9.05-3.34
			l9.09-3.26c6.08-2.14,12.13-4.33,18.25-6.39c24.38-8.44,49.1-16.23,74.17-23.22c3.14-0.87,6.24-1.81,9.41-2.61l9.47-2.45
			l9.47-2.45c3.17-0.78,6.36-1.52,9.54-2.28c6.37-1.49,12.72-3.03,19.17-4.31l9.64-2.01l4.82-1c1.61-0.32,3.24-0.6,4.86-0.9
			l9.73-1.74l4.86-0.86l2.43-0.43l2.45-0.37c6.54-0.97,13.08-1.97,19.63-2.9l19.79-2.24c6.64-0.57,13.29-1.08,19.93-1.59
			c1.66-0.15,3.34-0.19,5.01-0.26l5.02-0.19l10.04-0.38l2.51-0.09l2.45,0l4.91-0.01l9.81,0.01l9.81,0.03
			c3.27,0.02,6.54-0.02,9.8,0.14l19.59,0.74l9.79,0.39l9.76,0.69l19.51,1.47c3.25,0.21,6.49,0.57,9.73,0.92l9.71,1.05l9.71,1.07
			c3.23,0.38,6.48,0.66,9.69,1.14l19.31,2.72l9.64,1.38l9.59,1.62l19.16,3.32c3.2,0.52,6.37,1.18,9.54,1.82l9.51,1.92
			c50.75,10.21,100.49,23.72,149.34,39.32l18.3,5.91c6.09,2,12.15,4.06,18.21,6.13c6.06,2.08,12.12,4.12,18.16,6.26l18.08,6.45
			c24.07,8.72,48,17.75,71.75,27.44c-25.36-3.82-50.53-8.34-75.67-12.79l-37.64-6.78c-6.27-1.1-12.52-2.32-18.79-3.4l-18.77-3.33
			l-9.37-1.69l-9.38-1.59l-18.74-3.24l-37.45-6.12l-18.72-2.82l-9.35-1.44l-9.36-1.26l-18.69-2.59c-3.11-0.46-6.23-0.78-9.35-1.17
			l-9.35-1.13l-9.34-1.13c-3.11-0.37-6.22-0.79-9.34-1.07l-18.68-1.88l-9.33-0.96l-9.34-0.73l-18.66-1.49
			c-3.11-0.3-6.22-0.39-9.33-0.58l-9.33-0.51l-9.32-0.53c-3.11-0.19-6.21-0.39-9.32-0.44l-18.64-0.55l-9.31-0.3l-9.31-0.01
			l-18.61-0.07c-3.1-0.07-6.2,0.07-9.29,0.15l-9.29,0.25l-9.29,0.24l-4.64,0.1l-2.32,0.05l-2.26,0.13l-9.04,0.54l-4.52,0.27
			c-1.51,0.09-3.01,0.15-4.52,0.33l-18.13,1.7l-18.14,2.29l-18.15,2.76l-2.27,0.35l-2.27,0.41l-4.54,0.83l-9.07,1.64
			c-1.51,0.27-3.03,0.52-4.54,0.82l-4.53,0.93l-9.07,1.85c-6.05,1.16-12.08,2.64-18.12,3.97l-9.06,2.04l-9.05,2.22l-9.05,2.22
			c-1.51,0.36-3.01,0.76-4.52,1.16l-4.52,1.18l-9.05,2.36l-4.52,1.18l-4.51,1.25l-18.07,5.01l-18.05,5.23l-18.05,5.4
			c-6.02,1.77-12.02,3.7-18.04,5.55l-9.03,2.77l-9.02,2.86c-12.02,3.8-24.07,7.67-36.1,11.56l-72.4,23.64
			c-24.2,7.89-48.48,15.73-72.92,23.26c-24.43,7.54-49,14.83-73.74,21.58c-24.76,6.72-49.7,12.91-74.84,18.22
			C122.03,1994.49,96.72,1999,71.21,2001.74z"/>
		<path d="M482.61,2001.74c11.99,2.54,24.01,4.53,36.04,6.26c12.02,1.77,24.06,3.17,36.1,4.37c24.07,2.39,48.12,3.86,72.13,4.39
			c24,0.54,47.95,0.27,71.8-0.91c23.85-1.21,47.59-3.23,71.19-6.1c23.6-2.88,47.05-6.62,70.3-11.21c5.83-1.04,11.61-2.34,17.4-3.58
			l8.68-1.85l8.92-1.97c11.91-2.65,23.84-5.25,35.8-7.77c47.8-10.15,95.87-19.41,144.29-27.31c48.42-7.89,97.18-14.43,146.35-18.73
			c12.29-1.07,24.61-2.02,36.96-2.75c6.18-0.36,12.34-0.78,18.54-1l9.28-0.4c3.09-0.14,6.2-0.2,9.3-0.31
			c24.79-0.74,49.69-0.72,74.66,0.54c24.97,1.26,50.04,3.84,74.99,8.4c6.14,1.22,12.23,2.52,18.33,3.81l9.14,1.94
			c3.03,0.73,6.06,1.51,9.08,2.28l9.06,2.3l4.53,1.15l2.26,0.58c0.75,0.21,1.5,0.44,2.25,0.66l17.93,5.34
			c23.76,7.57,47.07,16.65,69.3,27.86l4.17,2.08l4.1,2.24l8.16,4.5c2.68,1.58,5.33,3.22,7.98,4.82c1.32,0.81,2.66,1.59,3.96,2.43
			l3.88,2.57c2.58,1.73,5.16,3.42,7.65,5.29c2.5,1.83,5.03,3.6,7.42,5.58l3.61,2.9l3.51,3.03c2.3,2.06,4.56,4.16,6.64,6.42
			c-2.59-1.65-5.23-3.17-7.92-4.59l-4.03-2.13l-4.1-1.98c-2.71-1.35-5.5-2.55-8.25-3.78c-2.73-1.27-5.56-2.36-8.36-3.49l-4.18-1.7
			c-1.4-0.56-2.83-1.05-4.24-1.58c-2.83-1.03-5.65-2.08-8.48-3.09l-8.58-2.8l-4.27-1.41l-4.33-1.26c-23-6.88-46.39-11.98-69.92-16
			l-17.69-2.75c-0.74-0.11-1.47-0.24-2.21-0.34l-2.23-0.27l-4.45-0.55l-8.88-1.1l-8.86-1.1l-8.92-0.82l-17.79-1.66l-8.77-0.55
			c-1.46-0.09-2.92-0.2-4.38-0.26l-4.41-0.17l-8.81-0.34l-8.85-0.12l-4.42-0.08c-1.47-0.02-2.96,0.01-4.43,0.01l-8.87,0.04
			c-2.95,0-5.93,0.14-8.89,0.18c-2.96,0.07-5.92,0.1-8.89,0.21c-23.73,0.82-47.53,2.44-71.35,4.6c-2.98,0.27-5.95,0.51-8.93,0.81
			l-8.93,0.9c-5.95,0.59-11.92,1.23-17.87,1.88c-5.96,0.61-11.92,1.38-17.88,2.06c-5.96,0.65-11.92,1.45-17.88,2.18
			c-47.68,6.02-95.37,13.32-143.08,21.05c-47.72,7.76-95.46,16.01-143.31,24.24l-35.91,6.15l-9,1.53l-9.28,1.46
			c-6.19,0.96-12.36,1.97-18.57,2.73c-24.8,3.31-49.73,5.57-74.68,6.47c-49.9,1.92-99.87-0.99-148.83-8.99
			c-24.48-3.97-48.7-9.29-72.48-16c-11.89-3.35-23.64-7.12-35.25-11.27C505.1,2011.69,493.61,2007.22,482.61,2001.74z"/>
		<path d="M1200.26,2160.26c2.66-3.15,5.46-6.18,8.28-9.22c2.91-2.91,5.88-5.79,8.91-8.63c1.52-1.41,3.09-2.75,4.67-4.1
			c1.57-1.35,3.16-2.7,4.75-4.03c3.23-2.61,6.57-5.09,9.9-7.61c13.5-9.79,28.16-18.2,43.65-24.97
			c30.97-13.6,65.32-20.47,99.56-19.91c34.25,0.49,68.28,8.45,98.86,22.69c15.31,7.09,29.77,15.75,43.12,25.69l4.96,3.78
			c1.66,1.25,3.26,2.57,4.83,3.93l4.73,4.04c0.78,0.68,1.57,1.34,2.34,2.03c0.77,0.69,1.51,1.42,2.27,2.13c3,2.86,6,5.69,8.86,8.67
			c2.81,3.05,5.6,6.08,8.26,9.23c-3.84-1.6-7.55-3.33-11.24-5.03l-1.38-0.65l-1.4-0.61l-2.79-1.22c-1.87-0.8-3.69-1.66-5.53-2.48
			c-7.41-3.2-14.73-6.36-22.11-9.25c-14.72-5.86-29.49-10.96-44.34-15.2c-14.85-4.21-29.79-7.56-44.8-9.88
			c-15.01-2.32-30.09-3.63-45.18-3.88c-30.19-0.52-60.39,3.32-90.21,11.09c-14.91,3.9-29.73,8.73-44.5,14.4l-11.07,4.39
			c-3.65,1.58-7.37,3.09-11.08,4.66c-3.64,1.68-7.37,3.27-11.1,4.91C1207.8,2156.93,1204.1,2158.66,1200.26,2160.26z"/>
		<path d="M139.11,2160.26c2.66-3.15,5.46-6.18,8.28-9.22c2.91-2.91,5.88-5.79,8.91-8.63c1.52-1.41,3.09-2.75,4.67-4.1
			c1.57-1.35,3.16-2.7,4.75-4.03c3.23-2.61,6.57-5.09,9.9-7.61c13.5-9.79,28.16-18.2,43.65-24.97
			c30.97-13.6,65.32-20.47,99.56-19.91c34.25,0.49,68.28,8.45,98.86,22.69c15.31,7.09,29.77,15.75,43.12,25.69l4.96,3.78
			c1.66,1.25,3.26,2.57,4.83,3.93l4.73,4.04c0.78,0.68,1.57,1.34,2.34,2.03c0.77,0.69,1.51,1.42,2.27,2.13c3,2.86,6,5.69,8.86,8.67
			c2.81,3.05,5.6,6.08,8.26,9.23c-3.84-1.6-7.55-3.33-11.24-5.03l-1.38-0.65l-1.4-0.61l-2.79-1.22c-1.87-0.8-3.69-1.66-5.53-2.48
			c-7.41-3.2-14.73-6.36-22.11-9.25c-14.72-5.86-29.49-10.96-44.34-15.2c-14.85-4.21-29.79-7.56-44.8-9.88
			c-15.01-2.32-30.08-3.63-45.18-3.88c-30.19-0.52-60.39,3.32-90.21,11.09c-14.91,3.9-29.73,8.73-44.5,14.4l-11.07,4.39
			c-3.65,1.58-7.37,3.09-11.08,4.66c-3.64,1.68-7.37,3.27-11.1,4.91C146.65,2156.93,142.95,2158.66,139.11,2160.26z"/>
	</g>
	<g class="st0">
		<path class="st1" d="M2006.99,2164.66l-142.32-179.28v179.28h-74.47v-386.13h74.47v184.24l132.94-184.24h85.5l-143.97,190.31
			l158.31,195.82H2006.99z"/>
		<path class="st1" d="M2378.23,2087.98h-158.87l-25.93,76.67H2114l139.01-386.13h91.57l139.01,386.13h-79.43L2378.23,2087.98z
			 M2355.62,2021.23l-56.82-167.14l-56.82,167.14H2355.62z"/>
		<path class="st1" d="M2746.71,2164.66l-79.43-139.01c-1.66,0-3.86,0-6.07,0h-59.02v139.01h-74.47v-386.13h133.49
			c86.6,0,143.97,52.96,143.97,126.32c0,48.54-25.93,86.05-67.85,105.36l94.88,154.45H2746.71z M2602.19,1961.11h59.02
			c38.61,0,67.3-17.65,67.3-56.27c0-34.75-25.38-56.82-67.3-56.82h-59.02V1961.11z"/>
		<path class="st1" d="M3093.68,2135.42v29.24h-209.06v-386.13h29.79v356.9H3093.68z"/>
		<path class="st1" d="M3195.17,1778.52v386.13h-29.79v-386.13H3195.17z"/>
		<path class="st1" d="M3576.89,1778.52v386.13h-29.24l-234.99-335.94v335.94h-29.24v-386.13h29.24l234.99,335.94v-335.94H3576.89z"
			/>
		<path class="st1" d="M3878.07,2135.42v29.24h-212.92v-386.13h207.96v29.79h-178.73v141.77h166.04v29.24h-166.04v156.11H3878.07z"
			/>
	</g>
	<g>
		<path d="M2006.99,2164.66l-142.32-179.28v179.28h-74.47v-386.13h74.47v184.24l132.94-184.24h85.5l-143.97,190.31l158.31,195.82
			H2006.99z"/>
		<path d="M2378.23,2087.98h-158.87l-25.93,76.67H2114l139.01-386.13h91.57l139.01,386.13h-79.43L2378.23,2087.98z M2355.62,2021.23
			l-56.82-167.14l-56.82,167.14H2355.62z"/>
		<path d="M2746.71,2164.66l-79.43-139.01c-1.66,0-3.86,0-6.07,0h-59.02v139.01h-74.47v-386.13h133.49
			c86.6,0,143.97,52.96,143.97,126.32c0,48.54-25.93,86.05-67.85,105.36l94.88,154.45H2746.71z M2602.19,1961.11h59.02
			c38.61,0,67.3-17.65,67.3-56.27c0-34.75-25.38-56.82-67.3-56.82h-59.02V1961.11z"/>
		<path d="M3116.04,2135.42v29.24h-209.06v-386.13h29.79v356.9H3116.04z"/>
		<path d="M3217.54,1778.52v386.13h-29.79v-386.13H3217.54z"/>
		<path d="M3599.25,1778.52v386.13h-29.24l-234.99-335.94v335.94h-29.24v-386.13h29.24l234.99,335.94v-335.94H3599.25z"/>
		<path d="M3900.43,2135.42v29.24h-212.92v-386.13h207.96v29.79h-178.73v141.77h166.04v29.24h-166.04v156.11H3900.43z"/>
	</g>
</g>
</svg>
